<svg width="40" height="40" viewBox="0 0 40 40" fill="none" xmlns="http://www.w3.org/2000/svg">
<g id="free-icon-24-hours-3871048 (1)" clip-path="url(#clip0_1948_124)">
<g id="Group">
<path id="Vector" d="M18.5938 0.0469971C18.4453 0.0626221 17.9844 0.11731 17.5781 0.164185C15.1484 0.437622 12.3594 1.33606 10.2266 2.53918C8.55469 3.4845 7.20312 4.50793 5.85938 5.8595C2.66406 9.047 0.671875 13.1251 0.117188 17.5782C-0.0390625 18.8439 -0.0390625 21.2345 0.117188 22.5001C0.546875 25.9689 2.00781 29.547 4.11719 32.2892C4.67188 33.0001 5.24219 33.1954 5.90625 32.8986C6.39062 32.6798 6.60156 32.3282 6.60156 31.7423C6.60156 31.3282 6.57031 31.2267 6.34375 30.922C4.30469 28.2032 3.15625 25.5314 2.6875 22.422C2.52344 21.3361 2.5 19.0548 2.64844 17.9689C3.75 9.72668 10.1719 3.47668 18.3672 2.65637C18.8594 2.60168 19.3438 2.57825 19.4375 2.59387C19.5703 2.6095 19.3281 2.8595 18.1875 3.86731C17.2969 4.65637 16.7344 5.21106 16.6719 5.36731C16.2031 6.46887 17.2891 7.55481 18.3828 7.07825C18.7422 6.922 23.7969 2.40637 23.9531 2.10168C24.1172 1.78137 24.1172 1.19543 23.9531 0.882935C23.75 0.484497 23.4141 0.30481 22.6719 0.187622C22.0078 0.0782471 19.1328 -0.0155029 18.5938 0.0469971Z" fill="#4C4C4C"/>
<path id="Vector_2" d="M34.0937 7.1797C33.6093 7.39845 33.3984 7.75002 33.3984 8.33595C33.3984 8.75001 33.4297 8.85158 33.6562 9.15626C36.875 13.4375 38.0781 18.1719 37.1875 23.1094C36.3203 27.9219 33.4297 32.1797 29.2578 34.8047C26.8125 36.3438 23.8203 37.2578 20.7968 37.3906L19.8047 37.4375L21.2265 36.0391C22.0078 35.2735 22.6875 34.5703 22.7265 34.4766C22.7734 34.3828 22.8125 34.1172 22.8125 33.8906C22.8125 33.3985 22.625 33.0391 22.25 32.8125C21.9062 32.6016 21.2187 32.6016 20.8984 32.8047C20.5937 33 15.9609 37.5 15.7734 37.7813C15.5547 38.1094 15.5703 38.8047 15.8047 39.1406C16.0703 39.5469 16.3984 39.6875 17.289 39.8125C23.5625 40.6563 29.789 38.586 34.1875 34.1875C37.125 31.2422 39.0156 27.5703 39.7734 23.3047C40.0078 21.9922 40.0703 19.125 39.8906 17.6563C39.4609 14.1328 38.0937 10.7422 35.9531 7.90627C35.3203 7.06252 34.7968 6.85939 34.0937 7.1797Z" fill="#4C4C4C"/>
<path id="Vector_3" d="M12.6953 11.883C11.3828 11.9846 10.3516 12.4533 9.45312 13.3596C8.48438 14.3283 8.08594 15.3674 8.14062 16.8518C8.15625 17.508 8.19531 17.6799 8.32812 17.8674C8.89844 18.6408 9.92969 18.6408 10.5 17.8674C10.625 17.7033 10.6641 17.4846 10.7031 16.8127C10.7422 16.1877 10.7969 15.8987 10.9219 15.6565C11.8203 13.9065 15.0938 14.0549 15.9688 15.883C16.3594 16.7033 16.2812 17.9143 15.7891 18.6252C15.4922 19.0549 14.6406 19.8283 13.3594 20.8283C10.5703 23.0002 9.39844 24.2033 8.47656 25.8283C8.17188 26.3518 8.125 26.508 8.125 26.883C8.125 27.3987 8.32031 27.7502 8.75 28.0002C9.01562 28.1565 9.14844 28.1643 13.4375 28.1877C16.5078 28.2033 17.9766 28.1877 18.2578 28.1252C19.1953 27.9221 19.5859 26.8752 19.0078 26.1096C18.6406 25.6174 18.6953 25.6252 15.1016 25.6252H11.8438L12.3828 25.0705C12.6875 24.7658 13.7031 23.8987 14.6484 23.1408C18.125 20.3674 18.7578 19.4377 18.7734 17.0705C18.7812 15.4924 18.3828 14.4768 17.3438 13.4299C16.2109 12.2815 14.5781 11.7346 12.6953 11.883Z" fill="#4C4C4C"/>
<path id="Vector_4" d="M28.2265 11.875C28.0937 11.9063 27.8906 12 27.789 12.0781C27.5078 12.2891 19.1406 22.4844 19.0469 22.7266C18.9297 23.0313 19.0156 23.7266 19.1953 23.9688C19.2812 24.0859 19.4687 24.25 19.6172 24.3359C19.875 24.4844 20.0469 24.4922 23.5781 24.5156L27.2656 24.5391V25.8359C27.2656 27.3281 27.3594 27.6641 27.8672 27.9766C28.2422 28.2109 28.8672 28.2109 29.2422 27.9766C29.75 27.6641 29.8437 27.3281 29.8437 25.8438V24.5547L30.4297 24.5078C31.1015 24.4609 31.4375 24.3047 31.6953 23.9063C31.9297 23.5625 31.9453 22.8828 31.7187 22.5156C31.4609 22.0938 31.1406 21.9531 30.4531 21.9531H29.8437V17.4063C29.8437 12.9688 29.8437 12.8516 29.6797 12.5313C29.4297 12.0078 28.8203 11.7344 28.2265 11.875ZM27.2422 21.9297C27.2265 21.9453 26.2656 21.9453 25.1094 21.9375L23 21.9141L25.1172 19.3516L27.2265 16.7813L27.25 19.3438C27.2578 20.75 27.2578 21.9141 27.2422 21.9297Z" fill="#4C4C4C"/>
</g>
</g>
<defs>
<clipPath id="clip0_1948_124">
<rect width="40" height="40" fill="white"/>
</clipPath>
</defs>
</svg>
