<svg width="72" height="71" viewBox="0 0 72 71" fill="none" xmlns="http://www.w3.org/2000/svg">
<g id="free-icon-bike-2069905 1">
<g id="Group">
<path id="Vector" d="M49.354 14.7685C49.1599 14.9488 49.0073 15.24 49.0073 15.4064C49.0073 15.559 49.354 16.9734 49.7839 18.5404C50.2138 20.0935 50.5327 21.397 50.505 21.4109C50.4079 21.4941 30.7858 25.3769 30.7442 25.3215C30.6749 25.2521 29.5933 22.4232 29.5933 22.3123C29.5933 22.2568 30.0093 22.1459 30.5085 22.0627C31.604 21.8685 32.5054 21.5218 33.4761 20.9256C34.4884 20.3015 35.6671 19.9687 36.8874 19.9687H37.9136V18.8455V17.7084L36.4991 17.7777C34.8489 17.8609 33.7534 18.1799 32.3667 18.998C30.0093 20.3847 27.6519 20.3015 25.2944 18.7207C24.7259 18.3463 24.2128 18.0273 24.1573 18.0273C24.0603 18.0273 22.937 19.6082 22.937 19.7468C22.937 20.0242 25.8353 21.6605 26.6257 21.8269C27.0556 21.924 27.0972 22.0072 27.9015 24.1427L28.7335 26.3615L28.1649 26.8885C26.5286 28.3861 22.2991 32.0748 22.1604 32.1302C22.0772 32.158 21.6612 31.9916 21.2591 31.742C20.2884 31.1734 18.7769 30.5771 17.5843 30.272C16.253 29.9531 12.9526 29.9392 11.6491 30.272C9.11143 30.9099 7.10068 32.047 5.24248 33.8914C3.39814 35.7496 2.26104 37.7742 1.62314 40.298C1.29033 41.6154 1.29033 44.9158 1.62314 46.2332C2.24717 48.7154 3.39814 50.7677 5.18701 52.5705C7.5999 55.025 10.4843 56.3424 13.8679 56.5365C20.5796 56.9248 26.5841 52.1545 27.6935 45.5259L27.8737 44.4443L29.0802 44.4027C30.037 44.375 30.2866 44.4027 30.2866 44.5552C30.2866 45.0129 31.2989 46.7324 31.8952 47.2732C32.4776 47.814 34.0169 48.6738 34.419 48.6738C34.5438 48.6738 34.5854 49.0066 34.5854 49.8525V51.0312H32.3667H30.1479V52.1406V53.25H33.1294C36.1247 53.25 36.1247 53.25 36.4575 52.9033C36.7903 52.5843 36.8042 52.5011 36.8042 50.6152C36.8042 49.0621 36.8458 48.6738 36.9983 48.6738C37.0954 48.6738 37.6224 48.4519 38.1493 48.1884C39.3419 47.5922 40.1462 46.7601 40.7286 45.5121C41.1308 44.6662 41.1724 44.4582 41.1724 43.2656C41.1724 42.073 41.1308 41.8511 40.7425 41.0468C40.2155 39.9375 39.6331 39.258 38.7317 38.6617L38.0384 38.2179L38.704 37.5662C40.9505 35.3336 51.5866 25.5433 51.6698 25.6265C51.7253 25.682 51.8224 25.9316 51.864 26.1812C51.9472 26.625 51.9472 26.625 51.3786 26.625C50.9487 26.625 50.713 26.7082 50.4634 26.9717C50.0335 27.3877 50.0335 27.4847 50.4772 29.5648C50.8378 31.215 50.8378 31.2705 50.5882 31.4369C50.4356 31.5478 49.8532 31.9361 49.2708 32.3105C45.5267 34.7511 43.2247 39.466 43.502 44.0976C43.7101 47.4119 45.0413 50.2963 47.4681 52.6953C49.2708 54.4842 51.3231 55.6351 53.8054 56.2592C55.1228 56.592 58.4231 56.592 59.7405 56.2592C62.306 55.6213 64.2335 54.5258 66.1333 52.6259C68.0331 50.7261 69.1286 48.7986 69.7665 46.2332C70.0993 44.9158 70.0993 41.6154 69.7665 40.298C68.7681 36.332 66.1749 33.0732 62.5972 31.3398C61.1966 30.6742 60.3784 30.4107 58.5896 30.1056L57.2583 29.8838L56.9671 28.5109C56.5927 26.8052 56.4263 26.625 55.1644 26.625H54.2907L54.1243 26.0287C54.0411 25.7097 53.4448 23.5187 52.8069 21.1752C52.169 18.8316 51.6421 16.8486 51.6421 16.7793C51.6421 16.6961 52.9456 16.6406 54.9702 16.6406H58.3122L58.645 16.9873C59.1026 17.431 59.1026 18.0689 58.645 18.5127C58.3261 18.8455 58.2429 18.8593 56.4263 18.8593H54.5542V19.9687V21.0781H56.4401C58.7976 21.0781 59.269 20.9533 60.1704 20.0381C61.155 19.0674 61.4323 18.0273 61.044 16.7238C60.8222 15.9611 59.6712 14.8101 58.9085 14.5883C58.5063 14.4773 56.9948 14.4218 54.0134 14.4218H49.6868L49.354 14.7685ZM50.1167 23.7822C50.1167 23.8099 46.8024 26.9439 42.7532 30.7297C37.4421 35.6802 35.3481 37.5662 35.2788 37.4275C35.0847 37.0808 31.5347 27.5541 31.5763 27.5125C31.604 27.4847 35.7642 26.625 40.8396 25.6127C45.9011 24.5865 50.0612 23.7406 50.089 23.7267C50.1028 23.7267 50.1167 23.7406 50.1167 23.7822ZM29.9815 29.6758L30.2589 30.4523L23.3392 36.3043L16.4194 42.1701L15.3517 42.1285L14.2978 42.0869L21.897 35.389C26.071 31.7004 29.5378 28.7328 29.5933 28.8021C29.6487 28.8576 29.829 29.2597 29.9815 29.6758ZM56.1351 35.2365C56.8839 38.7449 57.5356 41.7402 57.5634 41.8927C57.6327 42.1424 57.5495 42.1562 56.5372 42.1562H55.4417L54.0688 35.7357C53.32 32.2134 52.6683 29.2181 52.6405 29.0795C52.5851 28.8715 52.696 28.8437 53.6667 28.8437H54.7622L56.1351 35.2365ZM16.364 32.3244C17.4733 32.5185 19.1513 33.0732 19.7892 33.4615L20.33 33.7943L19.4563 34.557L18.5966 35.3336L18.028 35.084C14.7692 33.6972 10.928 34.4599 8.37646 37.0254C4.90967 40.4922 4.88193 46.0252 8.30713 49.4365C11.5798 52.6953 16.2946 53.042 19.9833 50.2963C21.5503 49.1314 22.8538 47.0929 23.2282 45.2347L23.4085 44.375H24.5456H25.6827L25.5024 45.3041C24.92 48.2855 23.1728 50.8925 20.6073 52.5705C18.7491 53.7908 17.0296 54.29 14.6167 54.29C12.2038 54.29 10.4843 53.7908 8.62607 52.5705C5.60303 50.5875 3.80029 47.4951 3.56455 43.8758C3.1624 37.6494 8.18232 32.2828 14.4919 32.1857C15.0604 32.1857 15.9063 32.2412 16.364 32.3244ZM60.5171 32.8652C62.7774 33.6834 64.7604 35.2504 66.0778 37.275C67.2981 39.147 67.7974 40.8527 67.7974 43.2656C67.7974 46.3996 66.7573 48.9234 64.594 51.0867C62.4308 53.25 59.9069 54.29 56.7729 54.29C54.3601 54.29 52.6405 53.7908 50.7823 52.5705C48.3556 50.9896 46.7886 48.7847 45.9843 45.831C45.6653 44.6523 45.6792 41.8511 46.012 40.5615C46.6915 37.9267 48.3972 35.5277 50.6437 34.0439C51.3509 33.5724 51.3925 33.6002 51.6282 34.8898L51.7946 35.7912L50.713 36.859C50.1167 37.4552 49.4233 38.2873 49.1737 38.7172C47.1075 42.2256 47.6345 46.6215 50.4634 49.4365C52.169 51.1283 53.9856 51.9603 56.2876 52.099C58.8114 52.2377 61.155 51.3502 62.93 49.5752C64.6356 47.8834 65.4677 46.0668 65.6063 43.7509C65.856 39.5076 63.2073 35.9299 58.8669 34.6402L58.2429 34.4599L58.0071 33.3644L57.7714 32.2689L58.5757 32.3521C59.0194 32.4076 59.8931 32.6295 60.5171 32.8652ZM32.2142 35.6248C33.0601 37.899 33.1849 38.3427 33.0046 38.4398C31.9091 39.05 30.8968 40.2703 30.4669 41.4767L30.2173 42.1701L29.0386 42.1285L27.8599 42.0869L27.7628 41.2549C27.6241 40.2287 27.222 38.8558 26.6812 37.6633L26.279 36.748L27.6935 35.5416C28.47 34.8759 29.5378 33.9746 30.0647 33.517C30.5917 33.0732 31.0632 32.7543 31.1187 32.8236C31.1741 32.8791 31.6595 34.141 32.2142 35.6248ZM16.4056 36.8451C16.7106 36.9699 16.5165 37.164 13.7708 39.5769C12.1345 41.0191 10.6646 42.3365 10.4981 42.5306C10.0683 42.9744 10.0821 43.5984 10.5259 44.0283L10.8587 44.375H16.0173H21.1759L21.0788 44.8187C20.9124 45.6924 20.2052 46.9543 19.4286 47.7863C18.5688 48.7293 17.4595 49.381 16.2114 49.7138C12.7308 50.6152 9.09756 48.4103 8.16846 44.8603C7.28096 41.4213 9.43037 37.8158 12.9665 36.8174C13.7569 36.5955 15.7677 36.6093 16.4056 36.8451ZM59.8515 37.3859C61.4046 38.1763 62.7497 39.882 63.2212 41.6709C64.4554 46.4273 59.9347 50.948 55.1782 49.7138C51.6282 48.7847 49.4233 45.1515 50.3247 41.6986C50.4356 41.2549 50.6853 40.5892 50.8794 40.2009C51.2954 39.3967 52.1968 38.3427 52.3354 38.5092C52.3909 38.5646 52.6821 39.7711 52.9733 41.1855C53.3894 43.1963 53.5696 43.8203 53.8192 44.056C54.1104 44.3611 54.2075 44.375 56.7729 44.375C59.3938 44.375 59.4216 44.375 59.7544 44.0283C59.9485 43.848 60.1011 43.5707 60.1011 43.4181C60.1011 43.2656 59.8237 41.8234 59.4771 40.2148C59.1304 38.6062 58.853 37.2334 58.853 37.164C58.853 36.9422 59.0888 36.9976 59.8515 37.3859ZM24.8645 39.0916C25.2112 39.9791 25.5718 41.3519 25.5718 41.8373C25.5718 42.1424 25.5163 42.1562 24.4763 42.1562H23.3808L23.2837 41.5045C23.2282 41.1439 23.0896 40.6031 22.9647 40.298L22.7429 39.7572L23.5749 39.0222C24.0187 38.6062 24.4208 38.2734 24.4624 38.2734C24.504 38.2734 24.6843 38.634 24.8645 39.0916ZM36.721 40.1039C37.4837 40.3258 38.6347 41.4767 38.8565 42.2394C39.2032 43.4043 38.9813 44.4582 38.2187 45.3457C37.8165 45.831 37.137 46.3164 36.8735 46.3164C36.8319 46.3164 36.8042 45.3734 36.8042 44.2363V42.1562H35.6948H34.5854V44.2363C34.5854 45.3734 34.5577 46.3164 34.5161 46.3164C34.2526 46.3164 33.5731 45.831 33.171 45.3457C32.0062 44.0006 32.1032 42.2672 33.4067 40.9775C34.3774 39.9929 35.4175 39.7295 36.721 40.1039ZM21.0511 41.5461C21.2452 42.0453 21.1481 42.1562 20.5103 42.1562H19.8862L20.33 41.7402C20.8569 41.2687 20.9401 41.241 21.0511 41.5461Z" fill="#4C4C4C"/>
</g>
</g>
</svg>
