<svg width="72" height="71" viewBox="0 0 72 71" fill="none" xmlns="http://www.w3.org/2000/svg">
<g id="free-icon-chain-2069913 1">
<g id="Group">
<path id="Vector" d="M8.23759 9.08316C5.81083 9.61012 3.43954 11.4683 2.30243 13.7287C0.5413 17.2509 1.17919 21.2308 3.95263 24.0043C5.47802 25.5297 7.15595 26.3201 9.51337 26.6113C12.9524 27.0273 15.92 28.8439 17.5702 31.5757C18.1526 32.5326 18.9569 34.8068 18.9569 35.5002C18.9569 36.1935 18.1942 38.3429 17.5841 39.383C16.9184 40.5339 15.2128 42.2396 14.0618 42.9052C12.8692 43.5986 11.011 44.2088 9.51337 44.389C7.15595 44.6802 5.47802 45.4707 3.95263 46.9961C0.471964 50.4767 0.430362 55.9959 3.86942 59.4211C5.57509 61.1129 7.39169 61.9449 9.69364 62.0836C12.2036 62.2222 14.5472 61.3347 16.3499 59.5597C17.9446 57.9927 18.7351 56.3148 19.0401 53.9158C19.4561 50.4767 21.2727 47.5091 24.0046 45.8589C25.1001 45.1933 27.097 44.5416 28.5946 44.3613C29.2602 44.2781 30.1616 44.0978 30.5915 43.9591C33.2401 43.141 35.5698 40.7974 36.4296 38.0656C36.8595 36.6927 36.8595 34.3076 36.4296 32.9347C35.9997 31.5757 35.2231 30.3138 34.1692 29.2599C32.63 27.7345 30.8966 26.9164 28.5946 26.639C27.097 26.4588 25.1001 25.807 24.0046 25.1414C22.2712 24.1013 20.5794 22.1461 19.886 20.3849C19.4839 19.4004 19.054 17.7918 19.054 17.2648C19.0401 16.3634 18.6102 14.8519 18.0556 13.7287C16.2528 10.1648 12.2036 8.23727 8.23759 9.08316ZM11.7737 11.3019C14.353 11.9814 16.3499 14.1724 16.7104 16.7379C17.4038 21.6468 19.4561 25.0582 22.9229 27.055C23.3806 27.3185 23.7688 27.5543 23.7688 27.5959C23.7688 27.6375 23.4915 27.8455 23.1448 28.0535C22.188 28.6636 21.2589 29.565 20.6487 30.4941C20.3436 30.9517 20.0663 31.3261 20.0247 31.3261C19.9831 31.3261 19.7474 30.9517 19.4839 30.4941C17.487 27.0273 14.0757 24.975 9.16669 24.2816C6.60126 23.9211 4.41025 21.9242 3.73075 19.3449C2.49657 14.6023 7.03114 10.0677 11.7737 11.3019ZM29.5237 29.0519C33.0737 29.981 35.2786 33.6142 34.3772 37.0949C33.6977 39.6742 31.5067 41.6711 28.9413 42.0316C26.9999 42.3089 25.0862 42.8359 23.8104 43.4738C19.7612 45.4707 17.4593 48.9652 16.7104 54.2625C16.3499 56.8279 14.353 59.0189 11.7737 59.6984C7.03114 60.9326 2.49657 56.398 3.73075 51.6554C4.41025 49.0761 6.60126 47.0793 9.16669 46.7187C14.464 45.9699 17.9585 43.6679 19.9554 39.6187C20.5933 38.3429 21.1202 36.4293 21.3976 34.4879C21.9245 30.7021 25.8212 28.0951 29.5237 29.0519Z" fill="#4C4C4C"/>
<path id="Vector_2" d="M9.13918 13.4375C7.8634 13.7703 6.74015 14.6855 6.15773 15.8781C5.89426 16.4467 5.82492 16.7934 5.82492 17.7502C5.81105 18.8318 5.85265 18.9982 6.28254 19.8025C6.80949 20.7732 7.25324 21.1893 8.29328 21.7439C8.88957 22.049 9.18078 22.1045 10.1792 22.1045C11.1777 22.1045 11.4689 22.049 12.0652 21.7439C13.1052 21.1893 13.5489 20.7732 14.0759 19.8025C14.5058 18.9982 14.5474 18.8318 14.5335 17.7502C14.5335 16.7518 14.478 16.4605 14.173 15.8643C13.6321 14.8242 13.2023 14.3805 12.2732 13.8813C11.3718 13.4098 9.99894 13.2018 9.13918 13.4375ZM11.0528 15.7256C12.4812 16.3219 12.8278 18.1801 11.7185 19.2895C10.1653 20.8564 7.61379 19.4559 8.01594 17.2648C8.26554 15.9613 9.79094 15.1848 11.0528 15.7256Z" fill="#4C4C4C"/>
<path id="Vector_3" d="M26.8892 31.1875C25.6134 31.5203 24.4902 32.4355 23.9077 33.6281C23.6443 34.1967 23.5749 34.5434 23.5749 35.5002C23.5611 36.5818 23.6027 36.7482 24.0325 37.5525C24.5595 38.5232 25.0032 38.9393 26.0433 39.4939C26.6396 39.799 26.9308 39.8545 27.9292 39.8545C28.9277 39.8545 29.2189 39.799 29.8152 39.4939C30.8552 38.9393 31.2989 38.5232 31.8259 37.5525C32.2558 36.7482 32.2974 36.5818 32.2835 35.5002C32.2835 34.5018 32.228 34.2105 31.923 33.6143C31.3821 32.5742 30.9523 32.1305 30.0232 31.6313C29.1218 31.1598 27.7489 30.9518 26.8892 31.1875ZM28.8028 33.4756C30.2312 34.0719 30.5778 35.9301 29.4685 37.0395C28.5671 37.9408 27.2913 37.9408 26.39 37.0395C24.6704 35.3338 26.5702 32.5326 28.8028 33.4756Z" fill="#4C4C4C"/>
<path id="Vector_4" d="M9.13918 48.9375C7.8634 49.2703 6.74015 50.1855 6.15773 51.3781C5.89426 51.9467 5.82492 52.2934 5.82492 53.2502C5.81105 54.3318 5.85265 54.4982 6.28254 55.3025C6.80949 56.2732 7.25324 56.6893 8.29328 57.2439C8.88957 57.549 9.18078 57.6045 10.1792 57.6045C11.1777 57.6045 11.4689 57.549 12.0652 57.2439C13.1052 56.6893 13.5489 56.2732 14.0759 55.3025C14.5058 54.4982 14.5474 54.3318 14.5335 53.2502C14.5335 52.2518 14.478 51.9605 14.173 51.3643C13.6321 50.3242 13.2023 49.8805 12.2732 49.3813C11.3718 48.9098 9.99894 48.7018 9.13918 48.9375ZM11.0528 51.2256C12.4812 51.8219 12.8278 53.6801 11.7185 54.7895C10.8171 55.6908 9.54133 55.6908 8.63996 54.7895C6.92043 53.0838 8.82023 50.2826 11.0528 51.2256Z" fill="#4C4C4C"/>
<path id="Vector_5" d="M41.5188 9.08316C39.0921 9.61012 36.7208 11.4683 35.5837 13.7287C33.8225 17.2509 34.4604 21.2308 37.2339 24.0043C38.7593 25.5297 40.4372 26.3201 42.7946 26.6113C46.2337 27.0273 49.2013 28.8439 50.8515 31.5757C51.4339 32.5326 52.2382 34.8068 52.2382 35.5002C52.2382 36.1935 51.4755 38.3429 50.8653 39.383C50.1997 40.5339 48.494 42.2396 47.3431 42.9052C46.1505 43.5986 44.2923 44.2088 42.7946 44.389C40.4372 44.6802 38.7593 45.4707 37.2339 46.9961C33.7532 50.4767 33.7116 55.9959 37.1507 59.4211C38.8563 61.1129 40.6729 61.9449 42.9749 62.0836C45.4849 62.2222 47.8284 61.3347 49.6311 59.5597C51.2259 57.9927 52.0163 56.3148 52.3214 53.9158C52.7374 50.4767 54.554 47.5091 57.2858 45.8589C58.3813 45.1933 60.3782 44.5416 61.8759 44.3613C62.5415 44.2781 63.4429 44.0978 63.8727 43.9591C66.5214 43.141 68.8511 40.7974 69.7108 38.0656C70.1407 36.6927 70.1407 34.3076 69.7108 32.9347C69.2809 31.5757 68.5044 30.3138 67.4505 29.2599C65.9112 27.7345 64.1778 26.9164 61.8759 26.639C60.3782 26.4588 58.3813 25.807 57.2858 25.1414C55.5524 24.1013 53.8606 22.1461 53.1673 20.3849C52.7651 19.4004 52.3352 17.7918 52.3352 17.2648C52.3214 16.3634 51.8915 14.8519 51.3368 13.7287C49.5341 10.1648 45.4849 8.23727 41.5188 9.08316ZM45.055 11.3019C47.6343 11.9814 49.6311 14.1724 49.9917 16.7379C50.6851 21.6468 52.7374 25.0582 56.2042 27.055C56.6618 27.3185 57.0501 27.5543 57.0501 27.5959C57.0501 27.6375 56.7727 27.8455 56.4261 28.0535C55.4692 28.6636 54.5401 29.565 53.93 30.4941C53.6249 30.9517 53.3475 31.3261 53.3059 31.3261C53.2643 31.3261 53.0286 30.9517 52.7651 30.4941C50.7683 27.0273 47.3569 24.975 42.4479 24.2816C39.8825 23.9211 37.6915 21.9242 37.012 19.3449C35.7778 14.6023 40.3124 10.0677 45.055 11.3019ZM62.805 29.0519C66.355 29.981 68.5599 33.6142 67.6585 37.0949C66.979 39.6742 64.788 41.6711 62.2225 42.0316C60.2811 42.3089 58.3675 42.8359 57.0917 43.4738C53.0425 45.4707 50.7405 48.9652 49.9917 54.2625C49.6311 56.8279 47.6343 59.0189 45.055 59.6984C40.3124 60.9326 35.7778 56.398 37.012 51.6554C37.6915 49.0761 39.8825 47.0793 42.4479 46.7187C47.7452 45.9699 51.2397 43.6679 53.2366 39.6187C53.8745 38.3429 54.4015 36.4293 54.6788 34.4879C55.2058 30.7021 59.1024 28.0951 62.805 29.0519Z" fill="#4C4C4C"/>
<path id="Vector_6" d="M42.4204 13.4375C41.1446 13.7703 40.0214 14.6855 39.439 15.8781C39.1755 16.4467 39.1062 16.7934 39.1062 17.7502C39.0923 18.8318 39.1339 18.9982 39.5638 19.8025C40.0907 20.7732 40.5345 21.1893 41.5745 21.7439C42.1708 22.049 42.462 22.1045 43.4605 22.1045C44.4589 22.1045 44.7501 22.049 45.3464 21.7439C46.3864 21.1893 46.8302 20.7732 47.3571 19.8025C47.787 18.9982 47.8286 18.8318 47.8148 17.7502C47.8148 16.7518 47.7593 16.4605 47.4542 15.8643C46.9134 14.8242 46.4835 14.3805 45.5544 13.8813C44.653 13.4098 43.2802 13.2018 42.4204 13.4375ZM44.3341 15.7256C45.7624 16.3219 46.1091 18.1801 44.9997 19.2895C43.4466 20.8564 40.895 19.4559 41.2972 17.2648C41.5468 15.9613 43.0722 15.1848 44.3341 15.7256Z" fill="#4C4C4C"/>
<path id="Vector_7" d="M60.1704 31.1875C58.8946 31.5203 57.7714 32.4355 57.189 33.6281C56.9255 34.1967 56.8562 34.5434 56.8562 35.5002C56.8423 36.5818 56.8839 36.7482 57.3138 37.5525C57.8407 38.5232 58.2845 38.9393 59.3245 39.4939C59.9208 39.799 60.212 39.8545 61.2105 39.8545C62.2089 39.8545 62.5001 39.799 63.0964 39.4939C64.1364 38.9393 64.5802 38.5232 65.1071 37.5525C65.537 36.7482 65.5786 36.5818 65.5648 35.5002C65.5648 34.5018 65.5093 34.2105 65.2042 33.6143C64.6634 32.5742 64.2335 32.1305 63.3044 31.6313C62.403 31.1598 61.0302 30.9518 60.1704 31.1875ZM62.0841 33.4756C63.5124 34.0719 63.8591 35.9301 62.7497 37.0395C61.8484 37.9408 60.5726 37.9408 59.6712 37.0395C57.9517 35.3338 59.8515 32.5326 62.0841 33.4756Z" fill="#4C4C4C"/>
<path id="Vector_8" d="M42.4204 48.9375C41.1446 49.2703 40.0214 50.1855 39.439 51.3781C39.1755 51.9467 39.1062 52.2934 39.1062 53.2502C39.0923 54.3318 39.1339 54.4982 39.5638 55.3025C40.0907 56.2732 40.5345 56.6893 41.5745 57.2439C42.1708 57.549 42.462 57.6045 43.4605 57.6045C44.4589 57.6045 44.7501 57.549 45.3464 57.2439C46.3864 56.6893 46.8302 56.2732 47.3571 55.3025C47.787 54.4982 47.8286 54.3318 47.8148 53.2502C47.8148 52.2518 47.7593 51.9605 47.4542 51.3643C46.9134 50.3242 46.4835 49.8805 45.5544 49.3813C44.653 48.9098 43.2802 48.7018 42.4204 48.9375ZM44.3341 51.2256C45.7624 51.8219 46.1091 53.6801 44.9997 54.7895C44.0984 55.6908 42.8226 55.6908 41.9212 54.7895C40.2017 53.0838 42.1015 50.2826 44.3341 51.2256Z" fill="#4C4C4C"/>
</g>
</g>
</svg>
