<svg width="40" height="40" viewBox="0 0 40 40" fill="none" xmlns="http://www.w3.org/2000/svg">
<g id="free-icon-diamond-711806 1">
<g id="Group">
<path id="Vector" d="M7.16383 3.69531C6.80445 3.91406 6.99195 3.625 3.20289 9.72656C0.0544531 14.7891 0.0466406 14.7969 0.0153906 15.2734C-0.000234438 15.6562 0.0232031 15.7969 0.171641 16.0234C0.273203 16.1797 4.59352 20.8125 9.78102 26.3125C16.5154 33.4531 19.2888 36.3359 19.4607 36.3984C19.781 36.5078 20.2185 36.5078 20.5388 36.3984C20.7107 36.3359 23.4841 33.4531 30.2185 26.3125C35.406 20.8125 39.7263 16.1797 39.8279 16.0234C39.9763 15.7969 39.9998 15.6562 39.9841 15.2734C39.9529 14.7969 39.9451 14.7812 37.117 10.2344C32.9295 3.50781 33.1795 3.89062 32.8279 3.6875L32.5154 3.51562H19.992H7.4607L7.16383 3.69531ZM12.4998 6.26562C12.492 6.32031 12.1482 8.07031 11.7341 10.1562L10.9685 13.9453L7.35914 13.9688L3.74977 13.9844L4.12477 13.3828C4.3357 13.0469 5.42945 11.2891 6.55445 9.46875L8.60914 6.17188H10.5545C12.0623 6.17188 12.4998 6.19531 12.4998 6.26562ZM24.7185 6.30469C24.7888 6.53906 26.3279 13.7969 26.3279 13.8906C26.3279 13.9609 24.742 13.9844 20.0388 13.9844C16.5779 13.9844 13.7498 13.9609 13.7498 13.9219C13.742 13.8906 14.0857 12.1328 14.5076 10.0156L15.2732 6.17188H19.9763C24.3826 6.17188 24.6795 6.17969 24.7185 6.30469ZM33.8123 10.0547L36.2263 13.9453L32.7107 13.9688C30.7732 13.9766 29.1795 13.9688 29.156 13.9453C29.1013 13.8984 27.5076 6.50781 27.4998 6.30469C27.4998 6.17969 27.6404 6.17188 29.4451 6.17188H31.3904L33.8123 10.0547ZM13.6404 22.8906L16.0935 29.0234L15.6326 28.5547C15.1873 28.0938 5.07008 17.3438 4.69508 16.9297L4.49977 16.7188L7.84352 16.7344L11.1873 16.7578L13.6404 22.8906ZM25.906 16.8516C25.492 17.9609 20.0388 31.4062 20.0076 31.4062C19.9763 31.4062 18.6326 28.1016 17.0154 24.0625L14.0779 16.7188H20.0154C25.6404 16.7188 25.9529 16.7266 25.906 16.8516ZM35.3045 16.9297C34.9138 17.3672 24.8045 28.1016 24.3982 28.5156L23.9763 28.9453L24.1404 28.5156C24.4763 27.6484 28.8357 16.8438 28.8748 16.7812C28.8982 16.75 30.3982 16.7188 32.2029 16.7188H35.492L35.3045 16.9297Z" fill="#4C4C4C"/>
</g>
</g>
</svg>
