<svg width="72" height="71" viewBox="0 0 72 71" fill="none" xmlns="http://www.w3.org/2000/svg">
<g id="free-icon-gear-2069906 1">
<g id="Group">
<path id="Vector" d="M31.604 1.45605C31.2989 1.74727 31.2573 1.91367 31.2573 2.69024C31.2573 3.52227 31.2296 3.60547 30.9522 3.66094C30.772 3.70254 29.9815 3.86895 29.1772 4.02148C28.3729 4.18789 27.5825 4.3543 27.4022 4.3959C27.1526 4.45137 27.0556 4.38203 26.8753 3.93829C26.5563 3.16172 26.2929 2.91211 25.7659 2.91211C25.1003 2.91211 19.4841 5.31113 19.0958 5.76875C18.7353 6.1709 18.6937 6.57305 18.9849 7.07227C19.0958 7.26641 19.179 7.51602 19.1929 7.64082C19.1929 7.80723 16.8216 9.56836 16.2392 9.81797C16.1837 9.8457 15.8925 9.65156 15.5874 9.37422C14.589 8.47285 14.5058 8.51445 11.6075 11.4127C8.70928 14.3109 8.66768 14.3941 9.56904 15.3926C9.84639 15.6977 10.0405 15.9889 10.0128 16.0443C9.76318 16.6268 8.00205 18.998 7.83564 18.998C7.71084 18.9842 7.46123 18.901 7.26709 18.79C6.76787 18.4988 6.36572 18.5404 5.96357 18.8871C5.54756 19.2615 3.10693 24.8777 3.10693 25.4463C3.10693 26.0287 3.35654 26.3477 4.03604 26.6389C4.57686 26.8607 4.64619 26.9578 4.57686 27.2213C4.53525 27.3877 4.36885 28.1781 4.21631 28.9824C4.0499 29.7867 3.89736 30.5771 3.85576 30.7436C3.80029 31.0348 3.71709 31.0625 2.88506 31.0625C2.1085 31.0625 1.94209 31.1041 1.65088 31.4092L1.3042 31.742V35.5V39.258L1.65088 39.5908C1.94209 39.8959 2.1085 39.9375 2.88506 39.9375C3.71709 39.9375 3.80029 39.9652 3.85576 40.2426C3.89736 40.4229 4.0499 41.2133 4.21631 42.0176C4.36885 42.8219 4.53525 43.6123 4.57686 43.7926C4.64619 44.0561 4.57686 44.1393 4.13311 44.3195C3.35654 44.6385 3.10693 44.902 3.10693 45.4289C3.10693 46.0945 5.50596 51.7107 5.96357 52.099C6.36572 52.4596 6.76787 52.5012 7.26709 52.21C7.46123 52.099 7.71084 52.0158 7.83564 52.002C8.00205 52.002 9.76318 54.3732 10.0128 54.9557C10.0405 55.0111 9.84639 55.3023 9.56904 55.6074C8.66768 56.6059 8.70928 56.6891 11.6075 59.5873C14.5058 62.4855 14.589 62.5271 15.5874 61.6258C15.8925 61.3484 16.1837 61.1543 16.2392 61.182C16.8216 61.4316 19.1929 63.1928 19.1929 63.3592C19.179 63.484 19.0958 63.7336 18.9849 63.9277C18.6937 64.427 18.7353 64.8291 19.0958 65.2313C19.4841 65.6889 25.1003 68.0879 25.7659 68.0879C26.2929 68.0879 26.5563 67.8383 26.8753 67.0617C27.0556 66.618 27.1526 66.5486 27.4022 66.6041C27.5825 66.6457 28.3729 66.8121 29.1772 66.9646C29.9815 67.1311 30.772 67.2975 30.9522 67.3391C31.2296 67.3945 31.2573 67.4777 31.2573 68.3098C31.2573 69.0863 31.2989 69.2527 31.604 69.5439L31.9368 69.8906H35.6948H39.4528L39.7856 69.5439C40.0907 69.2527 40.1323 69.0863 40.1323 68.3098C40.1323 67.4777 40.1601 67.3945 40.4513 67.3391C40.6177 67.2975 41.3804 67.1449 42.1569 66.9924C42.9196 66.8398 43.7101 66.6734 43.9181 66.6318C44.2509 66.5348 44.3202 66.5902 44.5144 67.0617C44.8333 67.8521 45.0968 68.0879 45.6376 68.0879C46.3032 68.0879 51.8917 65.6889 52.3077 65.2313C52.6544 64.8291 52.696 64.427 52.4048 63.9277C52.2938 63.7336 52.2106 63.484 52.1968 63.3592C52.1968 63.1928 54.5681 61.4316 55.1505 61.182C55.206 61.1543 55.4972 61.3484 55.8022 61.6258C56.8007 62.5271 56.8839 62.4855 59.7821 59.5873C62.6804 56.6891 62.722 56.6059 61.8206 55.6074C61.5433 55.3023 61.3491 55.0111 61.3769 54.9557C61.6265 54.3732 63.3876 52.002 63.554 52.002C63.6788 52.0158 63.9284 52.099 64.1226 52.21C64.6218 52.5012 65.0239 52.4596 65.4261 52.1129C65.8837 51.6969 68.2827 46.1084 68.2827 45.4428C68.2827 44.902 68.047 44.6385 67.2565 44.3195C66.8128 44.1393 66.7435 44.0561 66.8128 43.7926C66.8544 43.6123 67.0208 42.8219 67.1733 42.0176C67.3397 41.2133 67.4923 40.4229 67.5339 40.2426C67.5894 39.9652 67.6726 39.9375 68.5046 39.9375C69.2812 39.9375 69.4476 39.8959 69.7388 39.5908L70.0854 39.258V35.5V31.742L69.7388 31.4092C69.4476 31.1041 69.2812 31.0625 68.5046 31.0625C67.6726 31.0625 67.5894 31.0348 67.5339 30.7436C67.4923 30.5771 67.3397 29.7867 67.1733 28.9824C67.0208 28.1781 66.8544 27.3877 66.8128 27.2213C66.7435 26.9578 66.8128 26.8607 67.3536 26.6389C68.0331 26.3477 68.2827 26.0287 68.2827 25.4602C68.2827 24.8916 65.8282 19.2477 65.4261 18.8871C65.0239 18.5404 64.6218 18.4988 64.1226 18.79C63.9284 18.901 63.6788 18.9842 63.554 18.998C63.3876 18.998 61.6265 16.6268 61.3769 16.0443C61.3491 15.9889 61.5433 15.6977 61.8206 15.3926C62.722 14.3941 62.6804 14.3109 59.7821 11.4127C56.8839 8.51445 56.8007 8.47285 55.8022 9.37422C55.4972 9.65156 55.206 9.8457 55.1505 9.81797C54.5681 9.56836 52.1968 7.80723 52.1968 7.64082C52.2106 7.51602 52.2938 7.26641 52.4048 7.07227C52.696 6.57305 52.6544 6.1709 52.3077 5.76875C51.9056 5.31113 46.2894 2.91211 45.6237 2.91211C45.0968 2.91211 44.8333 3.16172 44.5144 3.93829C44.3202 4.40977 44.2509 4.46523 43.9181 4.36816C43.7101 4.32656 42.9196 4.16016 42.1569 4.00762C41.3804 3.85508 40.6177 3.70254 40.4513 3.66094C40.1601 3.60547 40.1323 3.52227 40.1323 2.69024C40.1323 1.91367 40.0907 1.74727 39.7856 1.45605L39.4528 1.10938H35.6948H31.9368L31.604 1.45605ZM37.9136 4.10469C37.9136 5.43594 38.08 5.57461 40.1046 5.87969C40.8673 6.00449 42.3095 6.2957 43.294 6.53144C45.0413 6.9752 45.1106 6.9752 45.4712 6.73945C45.6792 6.60078 45.9427 6.26797 46.0536 5.99063C46.1646 5.71328 46.2755 5.46368 46.2894 5.44981C46.331 5.4082 49.881 6.91973 49.9642 7.0168C50.0058 7.04453 49.9226 7.29414 49.7978 7.55762C49.3263 8.52832 49.5759 8.94434 51.1845 9.87344C51.7808 10.2201 52.8624 10.9551 53.5835 11.4959C55.1366 12.6607 55.511 12.7301 56.2876 12.0367L56.7868 11.6068L58.1874 13.0074L59.588 14.408L59.1581 14.9072C58.4647 15.6838 58.5341 16.0721 59.6851 17.5975C60.212 18.3047 60.947 19.3863 61.3075 19.9965C61.9731 21.1336 62.4585 21.6328 62.8745 21.6328C63.0132 21.6328 63.346 21.5357 63.6372 21.4109C63.9146 21.3 64.178 21.2168 64.1919 21.2445C64.3583 21.4109 65.7728 24.8916 65.6896 24.9193C65.1626 25.0996 64.5802 25.5156 64.3999 25.8207C64.2196 26.1535 64.2196 26.2783 64.4415 27.0688C64.7188 28.0672 65.3151 30.9377 65.4399 31.95C65.5786 32.9484 65.9669 33.2812 67.0347 33.2812H67.8667V35.5V37.7188H67.0347C65.9669 37.7188 65.5786 38.0516 65.4399 39.05C65.3151 40.0623 64.7188 42.9328 64.4415 43.9312C64.2196 44.7217 64.2196 44.8465 64.3999 45.1793C64.5802 45.4844 65.1626 45.9004 65.6896 46.0807C65.7728 46.1084 64.3583 49.5891 64.1919 49.7555C64.178 49.7832 63.9146 49.7 63.6372 49.5891C63.346 49.4643 63.0132 49.3672 62.8745 49.3672C62.4585 49.3672 61.9731 49.8664 61.3075 51.0035C60.947 51.6137 60.212 52.6953 59.6851 53.4025C58.5341 54.9279 58.4647 55.3162 59.1581 56.0928L59.588 56.592L58.1874 57.9926L56.7868 59.3932L56.2876 58.9633C55.511 58.2699 55.1366 58.3531 53.5974 59.4902C52.8901 60.0172 51.8085 60.7521 51.1983 61.1127C49.5759 62.0695 49.3263 62.4717 49.7978 63.4424C49.9226 63.7059 50.0058 63.9555 49.9642 63.9832C49.7978 64.1635 46.3032 65.5779 46.2755 65.4947C46.0952 64.9678 45.6792 64.3854 45.3741 64.2051C45.0413 64.0248 44.9165 64.0248 44.1261 64.2467C43.1276 64.524 40.2571 65.1203 39.2448 65.2451C38.2464 65.3838 37.9136 65.7721 37.9136 66.8398V67.6719H35.6948H33.4761V66.8398C33.4761 65.7721 33.1433 65.3838 32.1448 65.2451C30.9245 65.0787 29.9677 64.8984 28.1095 64.4547C26.3483 64.0248 26.279 64.0248 25.9185 64.2605C25.7104 64.3992 25.447 64.732 25.336 65.0094C25.2251 65.2867 25.1142 65.5363 25.1003 65.5502C25.0587 65.5918 21.5087 64.0803 21.4255 63.9832C21.3839 63.9555 21.4671 63.7059 21.5919 63.4424C22.0634 62.4717 21.8138 62.0695 20.1913 61.1127C19.5812 60.7521 18.4995 60.0172 17.7923 59.4902C16.2669 58.3393 15.8786 58.2699 15.1021 58.9633L14.6028 59.3932L13.2022 57.9926L11.8017 56.592L12.2315 56.0928C12.9249 55.3162 12.8556 54.9279 11.7046 53.4025C11.1776 52.6953 10.4427 51.6137 10.0821 51.0035C9.12529 49.3811 8.72314 49.1314 7.75244 49.6029C7.48896 49.7277 7.23936 49.8109 7.21162 49.7693C7.11455 49.6861 5.60303 46.1361 5.64463 46.0945C5.6585 46.0807 5.90811 45.9697 6.18545 45.8588C6.46279 45.7479 6.79561 45.4844 6.93428 45.2764C7.17002 44.9158 7.17002 44.8465 6.72627 43.0992C6.49053 42.1146 6.19932 40.6725 6.07451 39.9098C5.76943 37.8852 5.63076 37.7188 4.29951 37.7188H3.52295V35.5V33.2812H4.35498C5.42275 33.2812 5.81104 32.9484 5.94971 31.95C6.07451 30.9654 6.65693 28.0949 6.94814 27.0688C7.17002 26.2783 7.17002 26.1535 6.98975 25.8207C6.80947 25.5156 6.22705 25.0996 5.7001 24.9193C5.61689 24.8916 7.03135 21.3971 7.21162 21.2307C7.23936 21.1891 7.48896 21.2723 7.75244 21.3971C8.72314 21.8686 9.12529 21.6189 10.0821 19.9965C10.4427 19.3863 11.1776 18.3047 11.7046 17.5975C12.8417 16.0582 12.9249 15.6838 12.2315 14.9072L11.8017 14.408L13.2022 13.0074L14.6028 11.6068L15.1021 12.0367C15.8786 12.7301 16.2669 12.6607 17.7646 11.5375C18.4579 11.0244 19.4425 10.3588 19.9556 10.0537C21.1204 9.37422 21.8276 8.72246 21.8276 8.33418C21.8276 8.18164 21.7167 7.83496 21.5919 7.55762C21.4671 7.29414 21.3839 7.04453 21.4255 7.0168C21.5919 6.83652 25.0864 5.42207 25.1142 5.50527C25.2944 6.03223 25.7104 6.61465 26.0155 6.79492C26.3483 6.9752 26.4731 6.9752 27.2636 6.75332C28.262 6.47598 31.1325 5.87969 32.1448 5.75488C33.1433 5.61621 33.4761 5.22793 33.4761 4.16016V3.32812H35.6948H37.9136V4.10469Z" fill="#4C4C4C"/>
<path id="Vector_2" d="M34.5855 10.1646C33.906 10.3865 32.7411 11.5791 32.5331 12.2863C32.1448 13.5898 32.4222 14.6299 33.4067 15.6006C34.114 16.3217 34.8212 16.6406 35.6948 16.6406C36.5685 16.6406 37.2757 16.3217 37.9829 15.6006C39.3419 14.2555 39.3835 12.5221 38.0939 11.0938C37.1925 10.0953 35.9028 9.74863 34.5855 10.1646ZM36.4575 12.5498C36.6794 12.7578 36.8042 13.049 36.8042 13.3125C36.8042 13.576 36.6794 13.8672 36.4575 14.0752C35.778 14.7686 34.5855 14.2832 34.5855 13.3125C34.5855 12.7439 35.1263 12.2031 35.6948 12.2031C35.9583 12.2031 36.2495 12.3279 36.4575 12.5498Z" fill="#4C4C4C"/>
<path id="Vector_3" d="M27.0971 11.4959C14.1035 16.1691 7.11444 30.5217 11.4826 43.543C12.4256 46.3164 13.1328 47.5645 13.7984 47.5645C14.1174 47.5645 27.7072 42.3781 28.1648 42.073C28.7611 41.6986 28.7195 41.2826 27.943 39.7572C27.1525 38.2041 26.8197 36.9422 26.8197 35.5C26.8197 31.7143 29.3435 28.2475 33.0045 27.0549C33.8781 26.7637 34.308 26.3754 34.308 25.8623C34.308 25.5711 30.342 12.4805 29.9953 11.6068C29.6625 10.8025 29.0939 10.7748 27.0971 11.4959ZM29.9953 19.109C30.9521 22.2152 31.7426 24.8223 31.7703 24.9055C31.8119 25.0025 31.3682 25.2938 30.7996 25.5711C25.5578 28.0811 23.2558 34.2936 25.4885 39.8404L25.8213 40.6447L25.5301 40.7834C25.3637 40.8527 22.7982 41.8373 19.8445 42.9744L14.4502 45.0406L14.1174 44.2779C13.9371 43.8619 13.5904 42.8912 13.3685 42.1146C9.98495 30.5217 15.9201 18.3602 27.1664 13.8117C27.624 13.6314 28.0678 13.465 28.1371 13.465C28.2203 13.465 29.0523 16.0027 29.9953 19.109Z" fill="#4C4C4C"/>
<path id="Vector_4" d="M41.7825 11.0938C41.6577 11.1631 41.4913 11.3988 41.3942 11.6068C41.0614 12.4527 37.0815 25.5711 37.0815 25.8484C37.0815 26.3477 37.4698 26.7359 38.2325 26.9717C40.5761 27.7482 42.5868 29.44 43.5853 31.5063C44.9442 34.3074 44.9026 36.9006 43.4466 39.7434C42.67 41.2688 42.6284 41.6986 43.2247 42.073C43.6407 42.3365 57.2583 47.5645 57.5356 47.5645C58.0349 47.5645 58.3538 47.2039 58.9224 45.9975C62.7913 37.7465 61.6403 27.4848 55.9964 20.0797C55.0396 18.8316 52.8485 16.5852 51.6421 15.6145C49.4095 13.8117 46.7886 12.3557 44.1815 11.4543C42.7116 10.9412 42.1708 10.858 41.7825 11.0938ZM44.5421 13.9504C47.371 15.1014 49.9226 16.8348 52.1968 19.1367C55.83 22.7977 58.1042 27.457 58.7837 32.5602C59.1165 35.0979 59.0194 37.5939 58.4925 40.2842C58.2567 41.4213 57.4524 44.0145 57.1058 44.6662L56.9255 45.0406L51.545 42.9744C48.5913 41.8373 46.0259 40.8527 45.8595 40.7834L45.5683 40.6447L45.9011 39.8404C48.1337 34.2936 45.8595 28.1643 40.6038 25.5572C40.0353 25.2799 39.5915 24.9887 39.6192 24.9055C39.647 24.8223 40.4374 22.2152 41.3942 19.109C42.3372 16.0027 43.1692 13.4512 43.2247 13.4512C43.294 13.4512 43.8765 13.673 44.5421 13.9504Z" fill="#4C4C4C"/>
<path id="Vector_5" d="M34.0448 29.0659C30.5364 30.0088 28.3592 33.6559 29.2467 37.095C30.1758 40.645 33.809 42.8498 37.2897 41.9485C40.8397 41.0194 43.0446 37.3862 42.1432 33.9332C41.2141 30.3416 37.5254 28.1229 34.0448 29.0659ZM37.7889 31.6313C38.718 32.1305 39.1479 32.5743 39.6887 33.6143C39.9938 34.2106 40.0493 34.5018 40.0493 35.5002C40.0631 36.5819 40.0215 36.7483 39.5916 37.5526C39.0647 38.5233 38.6209 38.9393 37.5809 39.494C36.9846 39.7991 36.6934 39.8545 35.695 39.8545C34.6965 39.8545 34.4053 39.7991 33.809 39.494C32.769 38.9393 32.3252 38.5233 31.7983 37.5526C31.3684 36.7483 31.3268 36.5819 31.3407 35.5002C31.3407 34.1135 31.6735 33.2815 32.5748 32.3801C33.9616 30.9934 36.0278 30.7022 37.7889 31.6313Z" fill="#4C4C4C"/>
<path id="Vector_6" d="M29.3298 42.808C29.1356 42.9744 28.1233 45.4289 26.3345 50.0883C24.8507 53.9572 23.6304 57.216 23.6304 57.3408C23.6304 57.8401 23.9909 58.159 25.1974 58.7276C31.6456 61.7506 39.8134 61.7506 46.1784 58.7414C47.3987 58.159 47.7593 57.8401 47.7593 57.3408C47.7593 57.216 46.539 53.9572 45.0552 50.0883C43.2663 45.4289 42.254 42.9744 42.0599 42.808C41.63 42.4613 41.3249 42.5168 40.2155 43.1131C38.6624 43.9729 37.4144 44.2918 35.6948 44.2918C33.9753 44.2918 32.7272 43.9729 31.1741 43.1131C30.0647 42.5168 29.7597 42.4613 29.3298 42.808ZM34.3636 46.469C36.0692 46.6908 37.8442 46.4828 39.4667 45.9004C40.1046 45.6647 40.6731 45.4705 40.7425 45.4428C40.8118 45.4289 41.8519 47.9666 43.0444 51.0729L45.2354 56.7307L44.861 56.911C43.4743 57.6182 40.4097 58.4086 37.9829 58.6721C34.4884 59.0465 29.8567 58.3809 26.9169 57.0774L26.1542 56.7446L28.2204 51.3502C29.3575 48.3965 30.3421 45.8311 30.4114 45.6785L30.5501 45.3735L31.7843 45.8449C32.5608 46.1362 33.5315 46.3719 34.3636 46.469Z" fill="#4C4C4C"/>
<path id="Vector_7" d="M17.9448 48.993C17.2653 49.2148 16.1005 50.4074 15.8925 51.1146C15.5042 52.4182 15.7816 53.4582 16.7661 54.4289C18.1667 55.8434 19.9417 55.8434 21.3423 54.4289C22.7013 53.0838 22.7429 51.3504 21.4532 49.9221C20.5519 48.9236 19.2622 48.577 17.9448 48.993ZM19.8169 51.3781C20.5103 52.0576 20.0249 53.2502 19.0542 53.2502C18.7907 53.2502 18.4995 53.1254 18.2915 52.9035C18.0696 52.6955 17.9448 52.4043 17.9448 52.1408C17.9448 51.8773 18.0696 51.5861 18.2915 51.3781C18.4995 51.1563 18.7907 51.0314 19.0542 51.0314C19.3177 51.0314 19.6089 51.1563 19.8169 51.3781Z" fill="#4C4C4C"/>
<path id="Vector_8" d="M51.2261 48.993C50.5466 49.2148 49.3817 50.4074 49.1737 51.1146C48.7855 52.4182 49.0628 53.4582 50.0474 54.4289C51.448 55.8434 53.223 55.8434 54.6235 54.4289C55.9825 53.0838 56.0241 51.3504 54.7345 49.9221C53.8331 48.9236 52.5435 48.577 51.2261 48.993ZM53.0982 51.3781C53.7915 52.0576 53.3062 53.2502 52.3355 53.2502C51.7669 53.2502 51.2261 52.7094 51.2261 52.1408C51.2261 51.5723 51.7669 51.0314 52.3355 51.0314C52.5989 51.0314 52.8901 51.1563 53.0982 51.3781Z" fill="#4C4C4C"/>
</g>
</g>
</svg>
