<svg width="72" height="71" viewBox="0 0 72 71" fill="none" xmlns="http://www.w3.org/2000/svg">
<g id="free-icon-phone-2069924 1">
<g id="Group">
<path id="Vector" d="M24.4069 1.26192C23.5472 1.46992 22.2853 2.20489 21.6751 2.87051C21.37 3.20332 20.9124 3.89668 20.6767 4.40977L20.2329 5.33887L20.1913 8.76407L20.1358 12.2031H19.387C18.763 12.2031 18.5688 12.2586 18.2915 12.5498L17.9448 12.8826V22.1875V31.4924L18.2915 31.8252C18.5688 32.1164 18.763 32.1719 19.387 32.1719H20.1497L20.1913 36.7203L20.2329 41.2688L20.746 42.3227C21.37 43.5846 22.1882 44.375 23.464 44.9713C24.3237 45.3734 24.5317 45.415 26.1681 45.4566L27.9292 45.5121V46.2887C27.9292 47.4674 28.1788 48.1053 28.9692 48.8818C29.621 49.5336 30.3837 49.9219 31.0354 49.9219C31.2296 49.9219 31.2573 50.1299 31.2435 51.5443V53.1807L30.3282 53.7631L29.413 54.3594H25.6827H21.9524L21.6196 54.7061C21.3284 54.9834 21.2729 55.1775 21.2729 55.8154V56.5781H14.062H6.85107V57.6875V58.7969H14.062H21.2729V61.0156V63.2344H14.062H6.85107V64.3438V65.4531H14.062H21.2729V66.2158C21.2729 66.8537 21.3284 67.0479 21.6196 67.3252C21.9386 67.658 22.0218 67.6719 23.8384 67.6719H25.7104V68.4346C25.7104 69.0725 25.7659 69.2666 26.0571 69.5439L26.3899 69.8906H30.1479H33.906L34.2388 69.5439C34.5854 69.2111 34.5854 69.1834 34.5854 66.5625C34.5854 63.9416 34.5854 63.9139 34.2388 63.5811C33.9614 63.2898 33.7673 63.2344 33.1294 63.2344H32.3667V62.4578C32.3667 61.2514 32.6163 60.6135 33.4067 59.8369C34.8073 58.4225 36.5823 58.4225 37.9829 59.8369C38.7733 60.6135 39.0229 61.2514 39.0229 62.4578V63.2344H38.2603C37.6224 63.2344 37.4282 63.2898 37.1509 63.5811C36.8042 63.9139 36.8042 63.9416 36.8042 66.5625C36.8042 69.1834 36.8042 69.2111 37.1509 69.5439L37.4837 69.8906H41.2417H44.9997L45.3325 69.5439C45.6237 69.2666 45.6792 69.0725 45.6792 68.4346V67.6719H47.5513C49.3679 67.6719 49.4511 67.658 49.77 67.3252C50.0612 67.0479 50.1167 66.8537 50.1167 66.2158V65.4531H57.3276H64.5386V64.3438V63.2344H57.3276H50.1167V61.0156V58.7969H57.3276H64.5386V57.6875V56.5781H57.3276H50.1167V55.8154C50.1167 55.1775 50.0612 54.9834 49.77 54.7061L49.4372 54.3594H45.7347H42.0321L41.0892 53.7631L40.1462 53.1807L40.1323 51.5443C40.1323 50.1299 40.1601 49.9219 40.3542 49.9219C41.006 49.9219 41.7687 49.5336 42.4204 48.8818C43.2108 48.1053 43.4604 47.4674 43.4604 46.2887V45.5121L45.2354 45.4566C46.8579 45.415 47.0659 45.3734 47.9257 44.9713C49.2015 44.375 50.0196 43.5846 50.6437 42.3227L51.1567 41.2688L51.1983 36.7203L51.2399 32.1719H52.0026C52.6267 32.1719 52.8208 32.1164 53.0981 31.8252L53.4448 31.4924V22.1875V12.8826L53.0981 12.5498C52.8208 12.2586 52.6267 12.2031 52.0026 12.2031H51.2538L51.1983 8.76407L51.1567 5.325L50.6437 4.2711C50.0196 3.00919 49.2153 2.23262 47.9257 1.62247L46.9966 1.17872L35.9722 1.15099C29.6071 1.13712 24.7259 1.19258 24.4069 1.26192ZM46.7054 3.49454C47.4681 3.71641 48.619 4.86739 48.8409 5.63008C48.9519 6.0045 49.0073 7.25254 49.0073 9.20782V12.2031H47.8979H46.7886V9.22168C46.7886 6.22637 46.7886 6.22637 46.4419 5.89356L46.1091 5.54688H35.6948H25.2806L24.9478 5.89356C24.6011 6.22637 24.6011 6.22637 24.6011 9.22168V12.2031H23.4917H22.3823V9.20782C22.3823 7.25254 22.4378 6.0045 22.5487 5.63008C22.7567 4.92286 23.9216 3.73028 24.6011 3.50841C25.3222 3.28653 45.9288 3.27266 46.7054 3.49454ZM44.5698 10.1092V12.4527L44.1538 12.6191C43.5714 12.8549 42.7116 13.8672 42.5175 14.5328C42.2817 15.2955 42.2817 29.0795 42.5175 29.8422C42.7116 30.5078 43.5714 31.5201 44.1538 31.7559L44.5698 31.9223V34.2658V36.6094H35.6948H26.8198V34.2658V31.9223L27.2358 31.7559C27.8183 31.5201 28.678 30.5078 28.8722 29.8422C29.1079 29.0795 29.1079 15.2955 28.8722 14.5328C28.678 13.8672 27.8183 12.8549 27.2358 12.6191L26.8198 12.4527V10.1092V7.76563H35.6948H44.5698V10.1092ZM26.4731 14.7686L26.8198 15.1014V22.1875V29.2736L26.4731 29.6064C26.1403 29.9531 26.1403 29.9531 23.145 29.9531H20.1636V22.1875V14.4219H23.145C26.1403 14.4219 26.1403 14.4219 26.4731 14.7686ZM51.2261 22.1875V29.9531H48.2446C45.2493 29.9531 45.2493 29.9531 44.9165 29.6064L44.5698 29.2736V22.1875V15.1014L44.9165 14.7686C45.2493 14.4219 45.2493 14.4219 48.2446 14.4219H51.2261V22.1875ZM24.6011 35.1533C24.6011 38.1486 24.6011 38.1486 24.9478 38.4814L25.2806 38.8281H35.6948H46.1091L46.4419 38.4814C46.7886 38.1486 46.7886 38.1486 46.7886 35.1533V32.1719H47.8979H49.0073V36.2766C49.0073 39.1055 48.9519 40.5754 48.8409 40.9637C48.619 41.7264 47.4681 42.8773 46.7054 43.0992C45.8872 43.335 25.5024 43.335 24.6843 43.0992C23.9216 42.8773 22.7706 41.7264 22.5487 40.9637C22.4378 40.5754 22.3823 39.1055 22.3823 36.2766V32.1719H23.4917H24.6011V35.1533ZM41.2417 46.2471C41.2417 46.885 41.1862 47.0791 40.895 47.3564L40.5622 47.7031H35.6948H30.8274L30.4946 47.3564C30.2034 47.0791 30.1479 46.885 30.1479 46.2471V45.4844H35.6948H41.2417V46.2471ZM37.9136 51.1561V52.4041L37.4005 52.307C37.1093 52.2516 36.3466 52.21 35.6948 52.21C35.0431 52.21 34.2804 52.2516 34.003 52.307L33.4761 52.4041V51.1561V49.9219H35.6948H37.9136V51.1561ZM37.1647 54.5119C39.4112 54.9141 41.6161 56.6059 42.6284 58.7137C43.3495 60.2391 43.4604 60.974 43.4604 64.5795V67.6719H41.2417H39.0229V66.5625V65.4531H39.7856C40.4374 65.4531 40.6177 65.3977 40.9228 65.0926C41.2694 64.7459 41.2694 64.732 41.214 62.7768C41.1724 60.9186 41.1446 60.7521 40.7286 59.8785C40.1185 58.5889 39.3419 57.7846 38.08 57.1605C37.0815 56.6752 36.9567 56.6475 35.6948 56.6475C34.4329 56.6475 34.3081 56.6752 33.3097 57.1605C32.0478 57.7846 31.2712 58.5889 30.661 59.8785C30.245 60.7521 30.2173 60.9186 30.1757 62.7768C30.1202 64.732 30.1202 64.7459 30.4669 65.0926C30.772 65.3977 30.9522 65.4531 31.604 65.4531H32.3667V66.5625V67.6719H30.1479H27.9292V64.5795C27.9292 62.8738 27.9985 61.1127 28.0817 60.6551C28.4007 58.8939 29.5239 57.1189 30.9938 55.9957C32.8104 54.609 34.9321 54.1098 37.1647 54.5119ZM26.806 57.6459C25.9739 59.31 25.8214 60.0588 25.7521 62.9293L25.6827 65.4531H24.5872H23.4917V61.0156V56.5781H25.4192H27.3468L26.806 57.6459ZM47.8979 61.0156V65.4531H46.8024H45.7069L45.6376 62.9293C45.5683 60.0727 45.4296 59.3516 44.5837 57.6459L44.0567 56.5781H45.9704H47.8979V61.0156Z" fill="#4C4C4C"/>
<path id="Vector_2" d="M32.3667 41.0469V42.1562H35.6948H39.0229V41.0469V39.9375H35.6948H32.3667V41.0469Z" fill="#4C4C4C"/>
</g>
</g>
</svg>
