<svg width="40" height="40" viewBox="0 0 40 40" fill="none" xmlns="http://www.w3.org/2000/svg">
<g id="free-icon-settings-cog-70314 1" clip-path="url(#clip0_1949_145)">
<g id="Group">
<path id="Vector" d="M17.7342 0.117382C16.6873 0.250195 16.5311 0.29707 16.1795 0.554882C15.7733 0.843945 15.6717 1.05488 15.0077 2.92988C14.703 3.78144 14.4452 4.48457 14.4373 4.49238C14.4217 4.50019 14.0858 4.63301 13.6873 4.79707L12.9608 5.09394L12.1639 4.72676C9.56234 3.50801 9.67953 3.55488 9.17953 3.56269C8.6014 3.56269 8.38265 3.67207 7.42172 4.43769C6.4764 5.19551 5.19515 6.47676 4.43734 7.42207C3.74203 8.29707 3.6014 8.55488 3.5389 9.05488C3.49203 9.48457 3.65609 9.92988 4.57015 11.8439L5.1014 12.9533L4.79672 13.6799C4.63265 14.0861 4.49984 14.4221 4.49203 14.4377C4.48422 14.4455 3.78109 14.7033 2.92953 15.008C2.07797 15.3049 1.24984 15.6252 1.08578 15.7033C0.773279 15.8674 0.452967 16.2268 0.320154 16.5861C0.0232792 17.3674 -0.0939083 20.5471 0.117029 22.2424C0.249842 23.2971 0.312342 23.5158 0.593592 23.8908C0.851404 24.2268 1.13265 24.3596 2.94515 25.0002C3.7889 25.2971 4.48422 25.5549 4.49203 25.5627C4.49984 25.5783 4.6014 25.8283 4.71859 26.133C4.84359 26.4299 4.96859 26.7658 5.01547 26.8752C5.08578 27.0471 4.99984 27.2736 4.39047 28.5549C4.00765 29.3674 3.64828 30.1721 3.59359 30.3439C3.48422 30.6955 3.53109 31.2189 3.71859 31.5861C4.2889 32.6799 6.96859 35.383 8.36703 36.2658C8.6639 36.4533 9.29672 36.5236 9.65609 36.4064C9.82797 36.3518 10.6327 35.9924 11.4452 35.6096C12.7264 35.0002 12.953 34.9143 13.1248 34.9846C13.2342 35.0314 13.5702 35.1564 13.867 35.2814C14.1717 35.3986 14.4217 35.5002 14.4373 35.508C14.4452 35.5158 14.703 36.2111 14.9998 37.0549C15.6405 38.8674 15.7733 39.1486 16.1092 39.4064C16.4842 39.6877 16.6795 39.7424 17.7108 39.883C19.3748 40.1018 22.617 39.9846 23.4217 39.6799C23.7733 39.5471 24.1327 39.2268 24.2967 38.9143C24.3748 38.7502 24.6952 37.9221 24.992 37.0705C25.2967 36.2189 25.5545 35.5158 25.5623 35.508C25.578 35.5002 25.8358 35.3986 26.1327 35.2814C26.4373 35.1564 26.7655 35.0314 26.8748 34.9846C27.0467 34.9143 27.2733 35.0002 28.5545 35.6096C29.3748 35.9924 30.1717 36.3518 30.3436 36.4064C30.703 36.5236 31.3358 36.4533 31.6327 36.2658C33.0311 35.383 35.7108 32.6799 36.2811 31.5861C36.4686 31.2189 36.5155 30.6955 36.4061 30.3439C36.3514 30.1721 35.992 29.3674 35.6092 28.5549C34.9998 27.2736 34.9139 27.0471 34.9842 26.8752C35.0311 26.7658 35.1561 26.4299 35.2811 26.133C35.3983 25.8283 35.4998 25.5783 35.5077 25.5627C35.5155 25.5549 36.2108 25.2971 37.0545 25.0002C38.867 24.3596 39.1483 24.2268 39.4061 23.8908C39.6873 23.5158 39.7498 23.2971 39.8827 22.2424C40.0311 21.0236 40.0311 18.9689 39.8827 17.7424C39.6561 15.9299 39.6405 15.9143 36.7577 14.8908L35.4998 14.4455L35.2733 13.8518C35.1405 13.5236 35.0077 13.1799 34.9764 13.0939C34.9217 12.9689 35.0702 12.5861 35.6092 11.4455C35.992 10.6252 36.3514 9.82832 36.4061 9.65644C36.5155 9.30488 36.4686 8.78144 36.2811 8.41426C35.867 7.60957 33.9061 5.50019 32.578 4.43769C31.617 3.67207 31.3983 3.56269 30.8202 3.56269C30.3202 3.55488 30.4373 3.50801 27.8358 4.72676L27.0389 5.09394L26.3123 4.79707C25.9139 4.63301 25.578 4.50019 25.5623 4.49238C25.5545 4.48457 25.2967 3.78144 24.992 2.92988C24.6952 2.07832 24.3748 1.25019 24.2967 1.08613C24.1327 0.773632 23.7733 0.45332 23.4217 0.320507C22.6483 0.0314445 19.328 -0.0935555 17.7342 0.117382ZM20.9764 3.51582H21.4686L22.0389 5.13301C22.7655 7.18769 22.8358 7.28144 24.1014 7.73457C24.578 7.89863 25.3123 8.20332 25.742 8.40644C26.4295 8.73457 26.5858 8.78144 27.0311 8.78144C27.5077 8.78144 27.6248 8.74238 29.0467 8.06269L30.5623 7.34394L31.1014 7.82051C31.3983 8.08613 31.8748 8.55488 32.1483 8.86738L32.6561 9.43769L31.9373 10.9455C31.2577 12.3752 31.2186 12.4924 31.2186 12.9689C31.2186 13.4143 31.2655 13.5705 31.6092 14.2971C31.828 14.7502 32.1248 15.4689 32.2733 15.8986C32.492 16.5393 32.6014 16.7424 32.8905 17.0393C33.2186 17.3674 33.3514 17.4299 34.867 17.9611L36.4842 18.5314L36.4998 19.133C36.5155 19.7111 36.4842 21.4299 36.453 21.4611C36.4452 21.4689 35.703 21.7424 34.7967 22.0627C32.8045 22.7814 32.6952 22.8674 32.2655 24.1096C32.117 24.5393 31.828 25.2502 31.6092 25.7033C31.2655 26.4299 31.2186 26.5861 31.2186 27.0314C31.2186 27.508 31.2577 27.6252 31.9373 29.0549L32.6639 30.5705L32.4452 30.8127C31.9061 31.4143 31.4139 31.9143 31.0077 32.2736L30.5623 32.6564L29.0545 31.9377C27.617 31.258 27.5155 31.2189 27.0311 31.2189C26.5858 31.2268 26.4217 31.2736 25.703 31.6096C25.2498 31.8283 24.5311 32.1252 24.1014 32.2736C23.4608 32.4924 23.2577 32.6018 22.9608 32.8908C22.6327 33.2189 22.5702 33.3518 22.0389 34.8518L21.4686 36.4611L20.7342 36.5002C20.328 36.5236 19.6717 36.5236 19.2655 36.5002L18.5311 36.4611L17.9608 34.8518C17.4295 33.3518 17.367 33.2189 17.0389 32.8908C16.742 32.6018 16.5389 32.4924 15.8983 32.2736C15.4686 32.1252 14.7498 31.8283 14.2967 31.6096C13.5702 31.2658 13.4217 31.2189 12.9686 31.2189C12.492 31.2189 12.3748 31.2658 10.9452 31.9377L9.43734 32.6564L8.99203 32.2736C8.58578 31.9143 8.09359 31.4143 7.55453 30.8127L7.33578 30.5705L8.06234 29.0549C8.74203 27.6252 8.78109 27.508 8.78109 27.0314C8.78109 26.5861 8.73422 26.4299 8.39047 25.7033C8.17172 25.2502 7.88265 24.5393 7.73422 24.1096C7.30453 22.8674 7.19515 22.7814 5.20297 22.0627C4.29672 21.7424 3.55453 21.4689 3.54672 21.4611C3.51547 21.4299 3.48422 19.7111 3.49984 19.133L3.51547 18.5314L5.14047 17.9611C6.64828 17.4299 6.78109 17.3674 7.10922 17.0393C7.39828 16.7424 7.50765 16.5393 7.7264 15.8986C7.87484 15.4689 8.17172 14.7502 8.39047 14.2971C8.73422 13.5705 8.78109 13.4143 8.78109 12.9689C8.78109 12.4924 8.74203 12.3752 8.06234 10.9455L7.34359 9.43769L7.8514 8.86738C8.12484 8.55488 8.6014 8.08613 8.89828 7.82051L9.43734 7.34394L10.953 8.06269C12.3748 8.74238 12.492 8.78144 12.9686 8.78144C13.4139 8.78926 13.5702 8.74238 14.2577 8.40644C14.6873 8.20332 15.4295 7.89863 15.8983 7.72676C17.1561 7.28144 17.2342 7.18769 17.9608 5.14082L18.5311 3.52363L19.1717 3.49238C19.5155 3.47676 19.9608 3.47676 20.1483 3.49238C20.3358 3.50019 20.7108 3.51582 20.9764 3.51582Z" fill="#4C4C4C"/>
<path id="Vector_2" d="M18.3668 11.8047C15.1481 12.4844 12.7184 15.0078 12.1481 18.25C11.5465 21.6875 13.3121 25.1719 16.4371 26.7188C16.8746 26.9375 17.5777 27.2031 18.0074 27.3203C18.6949 27.5 18.9371 27.5234 19.9996 27.5234C21.0621 27.5234 21.3043 27.5 21.9918 27.3203C26.8981 26.0156 29.3824 20.5781 27.1246 16.0547C25.5074 12.7969 21.9215 11.0625 18.3668 11.8047ZM21.0543 15.2734C22.1871 15.5625 23.3277 16.4297 23.8902 17.4297C25.1246 19.6172 24.2184 22.4844 21.9371 23.5859C18.5231 25.2344 14.7652 22.1563 15.7027 18.4844C15.9137 17.6641 16.2418 17.1016 16.9137 16.4375C17.7809 15.5781 18.7496 15.1719 19.9606 15.1641C20.3121 15.1563 20.8043 15.2109 21.0543 15.2734Z" fill="#4C4C4C"/>
</g>
</g>
<defs>
<clipPath id="clip0_1949_145">
<rect width="40" height="40" fill="white"/>
</clipPath>
</defs>
</svg>
