<svg width="40" height="40" viewBox="0 0 40 40" fill="none" xmlns="http://www.w3.org/2000/svg">
<g id="free-icon-sticker-7494382_1" clip-path="url(#clip0_1949_137)">
<g id="Group">
<path id="Vector" d="M18.6953 0.117313C17.1641 0.390751 16.0625 0.976688 14.625 2.26575C13.6094 3.18763 12.4141 3.66419 11.125 3.672C10.0938 3.672 8.70313 4.00013 7.8125 4.45325C6.46094 5.13294 5.125 6.46888 4.45313 7.81263C4 8.70325 3.67188 10.0939 3.67188 11.1251C3.66406 12.297 3.25 13.4533 2.50781 14.3361C1.36719 15.6876 1.125 16.0236 0.773438 16.7579C0.195313 17.9454 0.046875 18.6329 0.046875 20.0001C0.046875 21.3361 0.195313 22.0314 0.726563 23.1642C1.09375 23.9454 1.48438 24.5079 2.20313 25.297C3.21875 26.4064 3.57031 27.2736 3.67188 28.8986C3.76563 30.4142 4.02344 31.3986 4.57813 32.4142C5.28125 33.6876 6.52344 34.8907 7.8125 35.547C8.69531 36.0001 10.0938 36.3283 11.125 36.3283C12.4141 36.3361 13.6328 36.8204 14.6328 37.7345C15.4375 38.4689 15.9609 38.8439 16.6016 39.172C18.0781 39.922 19.6719 40.1642 21.2734 39.8829C22.8047 39.6173 23.9688 39.0158 25.2813 37.8126C26.4063 36.7814 27.2578 36.4298 28.9297 36.3283C31.2266 36.1798 32.7969 35.5001 34.1797 34.047C35.5938 32.5782 36.1797 31.1642 36.3281 28.9376C36.4297 27.2501 36.7734 26.422 37.8516 25.2267C38.8516 24.1251 39.4141 23.1329 39.75 21.8829C39.9219 21.2423 39.9453 20.9689 39.9453 20.0001C39.9453 19.0314 39.9219 18.7579 39.75 18.1173C39.3984 16.8204 38.8359 15.8439 37.7344 14.6329C36.8203 13.6329 36.3359 12.4142 36.3281 11.1251C36.3281 9.9845 35.9688 8.57825 35.4219 7.59388C34.6172 6.11731 33.0859 4.75794 31.6406 4.21106C30.8203 3.89856 30.0313 3.74231 28.9297 3.672C27.2578 3.57044 26.4063 3.21888 25.2813 2.18763C24.3125 1.297 23.5156 0.797001 22.5156 0.437626C21.3438 0.0235634 19.8906 -0.101437 18.6953 0.117313ZM21.0547 2.46106C21.8672 2.63294 22.7578 3.09388 23.4609 3.71888C24.4297 4.57044 24.9063 4.90638 25.6641 5.27356C26.5859 5.72669 27.4531 5.92981 28.7422 6.01575C29.3281 6.05481 29.9844 6.14075 30.1953 6.19544C31.8594 6.64856 33.2031 7.93763 33.7188 9.56263C33.8594 10.0236 33.9375 10.4767 33.9844 11.2579C34.0703 12.5861 34.2734 13.422 34.7656 14.4142C35.1641 15.2189 35.3516 15.4845 36.2813 16.5392C38.1094 18.6251 38.1094 21.3595 36.2734 23.4689C35.3438 24.5314 35.1641 24.7892 34.7656 25.5861C34.2734 26.5782 34.0703 27.4142 33.9844 28.7423C33.8516 30.8282 33.1406 32.1564 31.6484 33.1407C30.8281 33.6798 30.0547 33.8986 28.7422 33.9845C27.4141 34.0704 26.5781 34.2736 25.5859 34.7657C24.7813 35.1642 24.5156 35.3517 23.4609 36.2814C21.3828 38.1095 18.6172 38.1095 16.5391 36.2814C15.4844 35.3517 15.2188 35.1642 14.4141 34.7657C13.4219 34.2736 12.5859 34.0704 11.2578 33.9845C10.4766 33.9376 10.0234 33.8595 9.5625 33.7189C7.9375 33.2032 6.64844 31.8595 6.19531 30.1954C6.14063 29.9845 6.05469 29.3282 6.01563 28.7423C5.92969 27.4142 5.71875 26.5782 5.23438 25.5861C4.83594 24.7814 4.64844 24.5158 3.71875 23.4611C1.89063 21.3829 1.89063 18.6251 3.71875 16.5314C4.60156 15.5236 4.91406 15.0783 5.27344 14.3361C5.72656 13.4064 5.92969 12.547 6.01563 11.2579C6.11719 9.75013 6.32031 9.09388 6.98438 8.172C7.96875 6.78919 9.25 6.14075 11.2578 6.01575C13.4766 5.87513 14.6484 5.36731 16.5313 3.71888C17.8516 2.56263 19.4453 2.12513 21.0547 2.46106Z" fill="#4C4C4C"/>
<path id="Vector_2" d="M18.8672 8.25781C15.1797 8.69531 12.1328 10.5391 10.1641 13.5234C9.29688 14.8281 8.67969 16.3516 8.39063 17.9297C8.1875 19.0078 8.1875 20.9922 8.39063 22.0703C9.29688 26.9531 13.0469 30.7031 17.9297 31.6094C19.0078 31.8125 20.9922 31.8125 22.0703 31.6094C26.9531 30.7031 30.7031 26.9531 31.6094 22.0703C31.8125 20.9922 31.8125 19.0078 31.6094 17.9297C30.6641 12.8516 26.6484 9.00781 21.5625 8.32031C20.8125 8.21875 19.4531 8.1875 18.8672 8.25781ZM21.4063 10.6562C24.4141 11.1172 27.0547 13.0312 28.4141 15.7422C29.1641 17.2266 29.4063 18.2969 29.4063 20C29.4063 21.3125 29.2891 22.0703 28.9297 23.0859C27.7813 26.2812 25.1953 28.5469 21.8594 29.2656C20.9531 29.4687 19.0391 29.4609 18.125 29.2656C15.8438 28.7734 13.7969 27.4609 12.3828 25.5859C11.5781 24.5156 10.875 22.8125 10.6641 21.4297C9.96875 16.8437 12.6563 12.5 17.1172 11.0078C18.4297 10.5703 19.9766 10.4453 21.4063 10.6562Z" fill="#4C4C4C"/>
<path id="Vector_3" d="M21.4062 18.7891L18.3203 21.875L16.875 20.4297L15.4297 18.9844L14.6094 19.8047L13.7891 20.625L16.0781 22.9141L18.3594 25.1953L22.2656 21.2891C24.4141 19.1406 26.1719 17.3438 26.1719 17.3047C26.1719 17.2031 24.6719 15.7031 24.5703 15.7031C24.5234 15.7031 23.1016 17.0938 21.4062 18.7891Z" fill="#4C4C4C"/>
</g>
</g>
<defs>
<clipPath id="clip0_1949_137">
<rect width="40" height="40" fill="white"/>
</clipPath>
</defs>
</svg>
